<svg width="255" height="271" viewBox="0 0 255 271" fill="none" xmlns="http://www.w3.org/2000/svg">
<path d="M125.165 135.609L127.268 137.318L166.434 89.1154L164.331 87.4066L125.165 135.609Z" fill="url(#paint0_linear_6167_1360)"/>
<path d="M88.5652 89.5458L125.155 137.28L127.306 135.631L90.716 87.8971L88.5652 89.5458Z" fill="url(#paint1_linear_6167_1360)"/>
<path d="M64.1852 153.503L64.9575 156.1L126.613 137.767L125.841 135.17L64.1852 153.503Z" fill="url(#paint2_linear_6167_1360)"/>
<path d="M123.493 136.476L123.965 200.281L126.675 200.261L126.203 136.456L123.493 136.476Z" fill="url(#paint3_linear_6167_1360)"/>
<path d="M125.824 137.76L185.663 156.084L186.457 153.493L126.617 135.169L125.824 137.76Z" fill="url(#paint4_linear_6167_1360)"/>
<path d="M153.714 175.025L156.277 175.907L174.62 122.586L172.058 121.705L153.714 175.025Z" fill="url(#paint5_linear_6167_1360)"/>
<path d="M125.463 90.6283L172.56 123.248L174.103 121.02L127.006 88.4005L125.463 90.6283Z" fill="url(#paint6_linear_6167_1360)"/>
<path d="M80.9138 119.483L82.4644 121.705L126.991 90.6384L125.44 88.4161L80.9138 119.483Z" fill="url(#paint7_linear_6167_1360)"/>
<path d="M80.4108 120.982L96.2798 174.457L98.8777 173.686L83.0087 120.211L80.4108 120.982Z" fill="url(#paint8_linear_6167_1360)"/>
<path d="M97.5432 175.431L154.977 176.827L155.042 174.118L97.6091 172.722L97.5432 175.431Z" fill="url(#paint9_linear_6167_1360)"/>
<path d="M125.446 88.4087L127.013 90.6194L200.186 38.7401L198.619 36.5294L125.446 88.4087Z" fill="url(#paint10_linear_6167_1360)"/>
<path d="M50.9261 38.0931L80.4307 121.051L82.9838 120.143L53.4793 37.1851L50.9261 38.0931Z" fill="url(#paint11_linear_6167_1360)"/>
<path d="M7.92413 173.69L7.95312 176.4L97.5927 175.441L97.5637 172.731L7.92413 173.69Z" fill="url(#paint12_linear_6167_1360)"/>
<path d="M125.77 262.644L128.349 263.467L156.289 175.877L153.71 175.054L125.77 262.644Z" fill="url(#paint13_linear_6167_1360)"/>
<path d="M172.506 123.223L244.43 177.094L246.054 174.925L174.13 121.054L172.506 123.223Z" fill="url(#paint14_linear_6167_1360)"/>
<path d="M202.011 236.134L204.614 236.888L247.645 88.322L245.042 87.5682L202.011 236.134Z" fill="url(#paint15_linear_6167_1360)"/>
<path d="M122.956 9.07433L245.582 89.0776L247.062 86.8082L124.436 6.80487L122.956 9.07433Z" fill="url(#paint16_linear_6167_1360)"/>
<path d="M9.62965 100.534L11.3574 102.621L124.539 8.95018L122.811 6.86254L9.62965 100.534Z" fill="url(#paint17_linear_6167_1360)"/>
<path d="M9.23 102.076L64.5903 238.084L67.1002 237.062L11.7398 101.055L9.23 102.076Z" fill="url(#paint18_linear_6167_1360)"/>
<path d="M65.8247 237.186L65.8643 239.896L202.945 237.894L202.905 235.185L65.8247 237.186Z" fill="url(#paint19_linear_6167_1360)"/>
<path d="M165.385 89.4508H246.316V86.741H165.385V89.4508Z" fill="url(#paint20_linear_6167_1360)"/>
<path d="M184.316 153.417L201.589 236.99L204.243 236.442L186.97 152.869L184.316 153.417Z" fill="url(#paint21_linear_6167_1360)"/>
<path d="M65.1055 237.213L66.5767 239.489L126.154 200.974L124.683 198.698L65.1055 237.213Z" fill="url(#paint22_linear_6167_1360)"/>
<path d="M9.52271 102.521L63.6177 155.75L65.5183 153.819L11.4234 100.589L9.52271 102.521Z" fill="url(#paint23_linear_6167_1360)"/>
<path d="M88.3769 88.195L90.874 89.2478L124.937 8.45209L122.44 7.39933L88.3769 88.195Z" fill="url(#paint24_linear_6167_1360)"/>
<path d="M245.248 168.079C240.866 168.079 237.314 171.631 237.314 176.013C237.314 180.395 240.866 183.947 245.248 183.947C249.63 183.947 253.183 180.395 253.183 176.013C253.183 171.631 249.63 168.079 245.248 168.079Z" fill="url(#paint25_linear_6167_1360)"/>
<path d="M173.251 108.918C166.083 108.918 160.272 114.729 160.272 121.898C160.272 129.067 166.083 134.878 173.251 134.878C180.42 134.878 186.231 129.067 186.231 121.898C186.231 114.729 180.42 108.918 173.251 108.918Z" fill="url(#paint26_linear_6167_1360)"/>
<path d="M10.471 93.6293C6.08896 93.6293 2.53667 97.1816 2.53667 101.564C2.53667 105.946 6.08896 109.498 10.471 109.498C14.853 109.498 18.4053 105.946 18.4053 101.564C18.4053 97.1816 14.853 93.6293 10.471 93.6293Z" fill="url(#paint27_linear_6167_1360)"/>
<path d="M7.93168 167.097C3.55117 167.097 6.96182e-05 170.649 6.96182e-05 175.029C6.96182e-05 179.41 3.55117 182.961 7.93168 182.961C12.3122 182.961 15.8633 179.41 15.8633 175.029C15.8633 170.649 12.3122 167.097 7.93168 167.097Z" fill="url(#paint28_linear_6167_1360)"/>
<path d="M123.689 2.38419e-05C119.307 2.38419e-05 115.755 3.55234 115.755 7.93434C115.755 12.3163 119.307 15.8687 123.689 15.8687C128.071 15.8687 131.624 12.3163 131.624 7.93434C131.624 3.55234 128.071 2.38419e-05 123.689 2.38419e-05Z" fill="url(#paint29_linear_6167_1360)"/>
<path d="M246.322 80.0016C241.94 80.0016 238.387 83.5539 238.387 87.9359C238.387 92.3179 241.94 95.8702 246.322 95.8702C250.704 95.8702 254.256 92.3179 254.256 87.9359C254.256 83.5539 250.704 80.0016 246.322 80.0016Z" fill="url(#paint30_linear_6167_1360)"/>
<path d="M126.228 121.532C117.981 121.532 111.295 128.218 111.295 136.466C111.295 144.713 117.981 151.4 126.228 151.4C134.476 151.4 141.162 144.713 141.162 136.466C141.162 128.218 134.476 121.532 126.228 121.532Z" fill="url(#paint31_linear_6167_1360)"/>
<path d="M154.725 163.163C147.558 163.163 141.748 168.973 141.748 176.14C141.748 183.307 147.558 189.117 154.725 189.117C161.892 189.117 167.702 183.307 167.702 176.14C167.702 168.973 161.892 163.163 154.725 163.163Z" fill="url(#paint32_linear_6167_1360)"/>
<path d="M97.5801 160.879C90.4114 160.879 84.6001 166.69 84.6001 173.859C84.6001 181.027 90.4114 186.839 97.5801 186.839C104.749 186.839 110.56 181.027 110.56 173.859C110.56 166.69 104.749 160.879 97.5801 160.879Z" fill="url(#paint33_linear_6167_1360)"/>
<path d="M52.2046 29.7131C47.8241 29.7131 44.273 33.2642 44.273 37.6447C44.273 42.0252 47.8241 45.5763 52.2046 45.5763C56.5851 45.5763 60.1362 42.0252 60.1362 37.6447C60.1362 33.2642 56.5851 29.7131 52.2046 29.7131Z" fill="url(#paint34_linear_6167_1360)"/>
<path d="M125.407 75.8773C118.239 75.8773 112.427 81.6887 112.427 88.8573C112.427 96.0259 118.239 101.837 125.407 101.837C132.576 101.837 138.387 96.0259 138.387 88.8573C138.387 81.6887 132.576 75.8773 125.407 75.8773Z" fill="url(#paint35_linear_6167_1360)"/>
<path d="M81.7793 107.669C74.6107 107.669 68.7993 113.48 68.7993 120.649C68.7993 127.817 74.6107 133.629 81.7793 133.629C88.9479 133.629 94.7593 127.817 94.7593 120.649C94.7593 113.48 88.9479 107.669 81.7793 107.669Z" fill="url(#paint36_linear_6167_1360)"/>
<path d="M186.069 149.297C183.034 149.297 180.573 151.757 180.573 154.792C180.573 157.827 183.034 160.288 186.069 160.288C189.104 160.288 191.564 157.827 191.564 154.792C191.564 151.757 189.104 149.297 186.069 149.297Z" fill="url(#paint37_linear_6167_1360)"/>
<path d="M125.413 194.605C122.526 194.605 120.186 196.945 120.186 199.832C120.186 202.719 122.526 205.059 125.413 205.059C128.3 205.059 130.64 202.719 130.64 199.832C130.64 196.945 128.3 194.605 125.413 194.605Z" fill="url(#paint38_linear_6167_1360)"/>
<path d="M165.388 82.4893C162.203 82.4893 159.621 85.071 159.621 88.2558C159.621 91.4405 162.203 94.0222 165.388 94.0222C168.573 94.0222 171.154 91.4405 171.154 88.2558C171.154 85.071 168.573 82.4893 165.388 82.4893Z" fill="url(#paint39_linear_6167_1360)"/>
<path d="M89.6433 83.1694C86.5708 83.1694 84.0801 85.6602 84.0801 88.7327C84.0801 91.8052 86.5708 94.2959 89.6433 94.2959C92.7158 94.2959 95.2065 91.8052 95.2065 88.7327C95.2065 85.6602 92.7158 83.1694 89.6433 83.1694Z" fill="url(#paint40_linear_6167_1360)"/>
<path d="M127.044 255.117C122.662 255.117 119.11 258.67 119.11 263.052C119.11 267.434 122.662 270.986 127.044 270.986C131.426 270.986 134.979 267.434 134.979 263.052C134.979 258.67 131.426 255.117 127.044 255.117Z" fill="url(#paint41_linear_6167_1360)"/>
<path d="M65.8431 229.634C61.4611 229.634 57.9087 233.187 57.9087 237.569C57.9087 241.951 61.4611 245.503 65.8431 245.503C70.225 245.503 73.7773 241.951 73.7773 237.569C73.7773 233.187 70.225 229.634 65.8431 229.634Z" fill="url(#paint42_linear_6167_1360)"/>
<path d="M64.5722 148.763C61.2423 148.763 58.5429 151.462 58.5429 154.792C58.5429 158.122 61.2423 160.822 64.5722 160.822C67.9021 160.822 70.6016 158.122 70.6016 154.792C70.6016 151.462 67.9021 148.763 64.5722 148.763Z" fill="url(#paint43_linear_6167_1360)"/>
<path d="M199.396 29.7104C195.014 29.7104 191.461 33.2627 191.461 37.6447C191.461 42.0267 195.014 45.579 199.396 45.579C203.778 45.579 207.33 42.0267 207.33 37.6447C207.33 33.2627 203.778 29.7104 199.396 29.7104Z" fill="url(#paint44_linear_6167_1360)"/>
<path d="M202.921 228.783C198.539 228.783 194.987 232.336 194.987 236.718C194.987 241.1 198.539 244.652 202.921 244.652C207.303 244.652 210.855 241.1 210.855 236.718C210.855 232.336 207.303 228.783 202.921 228.783Z" fill="url(#paint45_linear_6167_1360)"/>
<defs>
<linearGradient id="paint0_linear_6167_1360" x1="127.268" y1="137.318" x2="125.165" y2="135.609" gradientUnits="userSpaceOnUse">
<stop stop-color="#B98947"/>
<stop offset="1" stop-color="#FAF0A1"/>
</linearGradient>
<linearGradient id="paint1_linear_6167_1360" x1="125.155" y1="137.28" x2="88.5652" y2="89.5458" gradientUnits="userSpaceOnUse">
<stop stop-color="#B98947"/>
<stop offset="1" stop-color="#FAF0A1"/>
</linearGradient>
<linearGradient id="paint2_linear_6167_1360" x1="64.9575" y1="156.1" x2="64.1852" y2="153.503" gradientUnits="userSpaceOnUse">
<stop stop-color="#B98947"/>
<stop offset="1" stop-color="#FAF0A1"/>
</linearGradient>
<linearGradient id="paint3_linear_6167_1360" x1="123.965" y1="200.281" x2="123.493" y2="136.476" gradientUnits="userSpaceOnUse">
<stop stop-color="#B98947"/>
<stop offset="1" stop-color="#FAF0A1"/>
</linearGradient>
<linearGradient id="paint4_linear_6167_1360" x1="185.663" y1="156.084" x2="125.824" y2="137.76" gradientUnits="userSpaceOnUse">
<stop stop-color="#B98947"/>
<stop offset="1" stop-color="#FAF0A1"/>
</linearGradient>
<linearGradient id="paint5_linear_6167_1360" x1="156.277" y1="175.907" x2="153.714" y2="175.025" gradientUnits="userSpaceOnUse">
<stop stop-color="#B98947"/>
<stop offset="1" stop-color="#FAF0A1"/>
</linearGradient>
<linearGradient id="paint6_linear_6167_1360" x1="172.56" y1="123.248" x2="125.463" y2="90.6283" gradientUnits="userSpaceOnUse">
<stop stop-color="#B98947"/>
<stop offset="1" stop-color="#FAF0A1"/>
</linearGradient>
<linearGradient id="paint7_linear_6167_1360" x1="82.4644" y1="121.705" x2="80.9138" y2="119.483" gradientUnits="userSpaceOnUse">
<stop stop-color="#B98947"/>
<stop offset="1" stop-color="#FAF0A1"/>
</linearGradient>
<linearGradient id="paint8_linear_6167_1360" x1="96.2798" y1="174.457" x2="80.4108" y2="120.982" gradientUnits="userSpaceOnUse">
<stop stop-color="#B98947"/>
<stop offset="1" stop-color="#FAF0A1"/>
</linearGradient>
<linearGradient id="paint9_linear_6167_1360" x1="154.977" y1="176.827" x2="97.5432" y2="175.431" gradientUnits="userSpaceOnUse">
<stop stop-color="#B98947"/>
<stop offset="1" stop-color="#FAF0A1"/>
</linearGradient>
<linearGradient id="paint10_linear_6167_1360" x1="127.013" y1="90.6194" x2="125.446" y2="88.4087" gradientUnits="userSpaceOnUse">
<stop stop-color="#B98947"/>
<stop offset="1" stop-color="#FAF0A1"/>
</linearGradient>
<linearGradient id="paint11_linear_6167_1360" x1="80.4307" y1="121.051" x2="50.9261" y2="38.0931" gradientUnits="userSpaceOnUse">
<stop stop-color="#B98947"/>
<stop offset="1" stop-color="#FAF0A1"/>
</linearGradient>
<linearGradient id="paint12_linear_6167_1360" x1="7.95312" y1="176.4" x2="7.92413" y2="173.69" gradientUnits="userSpaceOnUse">
<stop stop-color="#B98947"/>
<stop offset="1" stop-color="#FAF0A1"/>
</linearGradient>
<linearGradient id="paint13_linear_6167_1360" x1="128.349" y1="263.467" x2="125.77" y2="262.644" gradientUnits="userSpaceOnUse">
<stop stop-color="#B98947"/>
<stop offset="1" stop-color="#FAF0A1"/>
</linearGradient>
<linearGradient id="paint14_linear_6167_1360" x1="244.43" y1="177.094" x2="172.506" y2="123.223" gradientUnits="userSpaceOnUse">
<stop stop-color="#B98947"/>
<stop offset="1" stop-color="#FAF0A1"/>
</linearGradient>
<linearGradient id="paint15_linear_6167_1360" x1="204.614" y1="236.888" x2="202.011" y2="236.134" gradientUnits="userSpaceOnUse">
<stop stop-color="#B98947"/>
<stop offset="1" stop-color="#FAF0A1"/>
</linearGradient>
<linearGradient id="paint16_linear_6167_1360" x1="245.582" y1="89.0776" x2="122.956" y2="9.07433" gradientUnits="userSpaceOnUse">
<stop stop-color="#B98947"/>
<stop offset="1" stop-color="#FAF0A1"/>
</linearGradient>
<linearGradient id="paint17_linear_6167_1360" x1="11.3574" y1="102.621" x2="9.62965" y2="100.534" gradientUnits="userSpaceOnUse">
<stop stop-color="#B98947"/>
<stop offset="1" stop-color="#FAF0A1"/>
</linearGradient>
<linearGradient id="paint18_linear_6167_1360" x1="64.5903" y1="238.084" x2="9.23" y2="102.076" gradientUnits="userSpaceOnUse">
<stop stop-color="#B98947"/>
<stop offset="1" stop-color="#FAF0A1"/>
</linearGradient>
<linearGradient id="paint19_linear_6167_1360" x1="65.8643" y1="239.896" x2="65.8247" y2="237.186" gradientUnits="userSpaceOnUse">
<stop stop-color="#B98947"/>
<stop offset="1" stop-color="#FAF0A1"/>
</linearGradient>
<linearGradient id="paint20_linear_6167_1360" x1="246.316" y1="89.4508" x2="165.385" y2="89.4508" gradientUnits="userSpaceOnUse">
<stop stop-color="#B98947"/>
<stop offset="1" stop-color="#FAF0A1"/>
</linearGradient>
<linearGradient id="paint21_linear_6167_1360" x1="201.589" y1="236.99" x2="184.316" y2="153.417" gradientUnits="userSpaceOnUse">
<stop stop-color="#B98947"/>
<stop offset="1" stop-color="#FAF0A1"/>
</linearGradient>
<linearGradient id="paint22_linear_6167_1360" x1="66.5767" y1="239.489" x2="65.1055" y2="237.213" gradientUnits="userSpaceOnUse">
<stop stop-color="#B98947"/>
<stop offset="1" stop-color="#FAF0A1"/>
</linearGradient>
<linearGradient id="paint23_linear_6167_1360" x1="63.6177" y1="155.75" x2="9.52271" y2="102.521" gradientUnits="userSpaceOnUse">
<stop stop-color="#B98947"/>
<stop offset="1" stop-color="#FAF0A1"/>
</linearGradient>
<linearGradient id="paint24_linear_6167_1360" x1="90.874" y1="89.2478" x2="88.3769" y2="88.195" gradientUnits="userSpaceOnUse">
<stop stop-color="#B98947"/>
<stop offset="1" stop-color="#FAF0A1"/>
</linearGradient>
<linearGradient id="paint25_linear_6167_1360" x1="253.183" y1="183.947" x2="237.314" y2="183.947" gradientUnits="userSpaceOnUse">
<stop stop-color="#B98947"/>
<stop offset="1" stop-color="#FAF0A1"/>
</linearGradient>
<linearGradient id="paint26_linear_6167_1360" x1="186.231" y1="134.878" x2="160.272" y2="134.878" gradientUnits="userSpaceOnUse">
<stop stop-color="#B98947"/>
<stop offset="1" stop-color="#FAF0A1"/>
</linearGradient>
<linearGradient id="paint27_linear_6167_1360" x1="18.4053" y1="109.498" x2="2.53667" y2="109.498" gradientUnits="userSpaceOnUse">
<stop stop-color="#B98947"/>
<stop offset="1" stop-color="#FAF0A1"/>
</linearGradient>
<linearGradient id="paint28_linear_6167_1360" x1="15.8633" y1="182.961" x2="6.86646e-05" y2="182.961" gradientUnits="userSpaceOnUse">
<stop stop-color="#B98947"/>
<stop offset="1" stop-color="#FAF0A1"/>
</linearGradient>
<linearGradient id="paint29_linear_6167_1360" x1="131.624" y1="15.8687" x2="115.755" y2="15.8687" gradientUnits="userSpaceOnUse">
<stop stop-color="#B98947"/>
<stop offset="1" stop-color="#FAF0A1"/>
</linearGradient>
<linearGradient id="paint30_linear_6167_1360" x1="254.256" y1="95.8702" x2="238.387" y2="95.8702" gradientUnits="userSpaceOnUse">
<stop stop-color="#B98947"/>
<stop offset="1" stop-color="#FAF0A1"/>
</linearGradient>
<linearGradient id="paint31_linear_6167_1360" x1="141.162" y1="151.4" x2="111.295" y2="151.4" gradientUnits="userSpaceOnUse">
<stop stop-color="#B98947"/>
<stop offset="1" stop-color="#FAF0A1"/>
</linearGradient>
<linearGradient id="paint32_linear_6167_1360" x1="167.702" y1="189.117" x2="141.748" y2="189.117" gradientUnits="userSpaceOnUse">
<stop stop-color="#B98947"/>
<stop offset="1" stop-color="#FAF0A1"/>
</linearGradient>
<linearGradient id="paint33_linear_6167_1360" x1="110.56" y1="186.839" x2="84.6001" y2="186.839" gradientUnits="userSpaceOnUse">
<stop stop-color="#B98947"/>
<stop offset="1" stop-color="#FAF0A1"/>
</linearGradient>
<linearGradient id="paint34_linear_6167_1360" x1="60.1362" y1="45.5763" x2="44.273" y2="45.5763" gradientUnits="userSpaceOnUse">
<stop stop-color="#B98947"/>
<stop offset="1" stop-color="#FAF0A1"/>
</linearGradient>
<linearGradient id="paint35_linear_6167_1360" x1="138.387" y1="101.837" x2="112.427" y2="101.837" gradientUnits="userSpaceOnUse">
<stop stop-color="#B98947"/>
<stop offset="1" stop-color="#FAF0A1"/>
</linearGradient>
<linearGradient id="paint36_linear_6167_1360" x1="94.7593" y1="133.629" x2="68.7993" y2="133.629" gradientUnits="userSpaceOnUse">
<stop stop-color="#B98947"/>
<stop offset="1" stop-color="#FAF0A1"/>
</linearGradient>
<linearGradient id="paint37_linear_6167_1360" x1="191.564" y1="160.288" x2="180.573" y2="160.288" gradientUnits="userSpaceOnUse">
<stop stop-color="#B98947"/>
<stop offset="1" stop-color="#FAF0A1"/>
</linearGradient>
<linearGradient id="paint38_linear_6167_1360" x1="130.64" y1="205.059" x2="120.186" y2="205.059" gradientUnits="userSpaceOnUse">
<stop stop-color="#B98947"/>
<stop offset="1" stop-color="#FAF0A1"/>
</linearGradient>
<linearGradient id="paint39_linear_6167_1360" x1="171.154" y1="94.0222" x2="159.621" y2="94.0222" gradientUnits="userSpaceOnUse">
<stop stop-color="#B98947"/>
<stop offset="1" stop-color="#FAF0A1"/>
</linearGradient>
<linearGradient id="paint40_linear_6167_1360" x1="95.2065" y1="94.2959" x2="84.0801" y2="94.2959" gradientUnits="userSpaceOnUse">
<stop stop-color="#B98947"/>
<stop offset="1" stop-color="#FAF0A1"/>
</linearGradient>
<linearGradient id="paint41_linear_6167_1360" x1="134.979" y1="270.986" x2="119.11" y2="270.986" gradientUnits="userSpaceOnUse">
<stop stop-color="#B98947"/>
<stop offset="1" stop-color="#FAF0A1"/>
</linearGradient>
<linearGradient id="paint42_linear_6167_1360" x1="73.7773" y1="245.503" x2="57.9087" y2="245.503" gradientUnits="userSpaceOnUse">
<stop stop-color="#B98947"/>
<stop offset="1" stop-color="#FAF0A1"/>
</linearGradient>
<linearGradient id="paint43_linear_6167_1360" x1="70.6016" y1="160.822" x2="58.5429" y2="160.822" gradientUnits="userSpaceOnUse">
<stop stop-color="#B98947"/>
<stop offset="1" stop-color="#FAF0A1"/>
</linearGradient>
<linearGradient id="paint44_linear_6167_1360" x1="207.33" y1="45.579" x2="191.461" y2="45.579" gradientUnits="userSpaceOnUse">
<stop stop-color="#B98947"/>
<stop offset="1" stop-color="#FAF0A1"/>
</linearGradient>
<linearGradient id="paint45_linear_6167_1360" x1="210.855" y1="244.652" x2="194.987" y2="244.652" gradientUnits="userSpaceOnUse">
<stop stop-color="#B98947"/>
<stop offset="1" stop-color="#FAF0A1"/>
</linearGradient>
</defs>
</svg>
