<svg width="992" height="322" viewBox="0 0 992 322" fill="none" xmlns="http://www.w3.org/2000/svg">
<path d="M150.591 161.035L152.694 162.744L191.86 114.541L189.757 112.832L150.591 161.035Z" fill="url(#paint0_linear_6167_1358)"/>
<path d="M113.991 114.971L150.581 162.706L152.732 161.057L116.142 113.323L113.991 114.971Z" fill="url(#paint1_linear_6167_1358)"/>
<path d="M89.611 178.928L90.3833 181.525L152.039 163.193L151.267 160.595L89.611 178.928Z" fill="url(#paint2_linear_6167_1358)"/>
<path d="M148.919 161.901L149.391 225.706L152.101 225.686L151.629 161.881L148.919 161.901Z" fill="url(#paint3_linear_6167_1358)"/>
<path d="M151.25 163.186L211.089 181.509L211.882 178.918L152.043 160.595L151.25 163.186Z" fill="url(#paint4_linear_6167_1358)"/>
<path d="M179.14 200.451L181.703 201.332L200.046 148.012L197.483 147.13L179.14 200.451Z" fill="url(#paint5_linear_6167_1358)"/>
<path d="M150.889 116.054L197.985 148.674L199.528 146.446L152.432 113.826L150.889 116.054Z" fill="url(#paint6_linear_6167_1358)"/>
<path d="M106.34 144.908L107.89 147.131L152.416 116.064L150.866 113.842L106.34 144.908Z" fill="url(#paint7_linear_6167_1358)"/>
<path d="M105.837 146.407L121.706 199.882L124.303 199.111L108.434 145.636L105.837 146.407Z" fill="url(#paint8_linear_6167_1358)"/>
<path d="M122.969 200.857L180.402 202.253L180.468 199.544L123.035 198.148L122.969 200.857Z" fill="url(#paint9_linear_6167_1358)"/>
<path d="M150.872 113.834L152.439 116.045L225.612 64.1656L224.044 61.9549L150.872 113.834Z" fill="url(#paint10_linear_6167_1358)"/>
<path d="M76.3519 63.5187L105.856 146.477L108.41 145.569L78.9051 62.6106L76.3519 63.5187Z" fill="url(#paint11_linear_6167_1358)"/>
<path d="M33.3499 199.116L33.3789 201.825L123.018 200.866L122.989 198.157L33.3499 199.116Z" fill="url(#paint12_linear_6167_1358)"/>
<path d="M151.195 288.069L153.774 288.892L181.714 201.302L179.135 200.48L151.195 288.069Z" fill="url(#paint13_linear_6167_1358)"/>
<path d="M197.932 148.648L269.855 202.519L271.48 200.35L199.556 146.479L197.932 148.648Z" fill="url(#paint14_linear_6167_1358)"/>
<path d="M227.437 261.56L230.04 262.314L273.071 113.748L270.468 112.994L227.437 261.56Z" fill="url(#paint15_linear_6167_1358)"/>
<path d="M148.381 34.4999L271.007 114.503L272.488 112.234L149.862 32.2304L148.381 34.4999Z" fill="url(#paint16_linear_6167_1358)"/>
<path d="M35.0554 125.959L36.7832 128.047L149.964 34.3757L148.237 32.2881L35.0554 125.959Z" fill="url(#paint17_linear_6167_1358)"/>
<path d="M34.6558 127.502L90.0161 263.509L92.5259 262.488L37.1656 126.48L34.6558 127.502Z" fill="url(#paint18_linear_6167_1358)"/>
<path d="M91.2505 262.612L91.29 265.321L228.371 263.32L228.331 260.61L91.2505 262.612Z" fill="url(#paint19_linear_6167_1358)"/>
<path d="M190.811 114.876H271.742V112.167H190.811V114.876Z" fill="url(#paint20_linear_6167_1358)"/>
<path d="M209.742 178.843L227.015 262.416L229.668 261.868L212.396 178.294L209.742 178.843Z" fill="url(#paint21_linear_6167_1358)"/>
<path d="M90.5313 262.638L92.0024 264.914L151.58 226.399L150.109 224.124L90.5313 262.638Z" fill="url(#paint22_linear_6167_1358)"/>
<path d="M34.9485 127.946L89.0435 181.176L90.9441 179.244L36.8491 126.015L34.9485 127.946Z" fill="url(#paint23_linear_6167_1358)"/>
<path d="M113.803 113.621L116.3 114.673L150.363 33.8776L147.866 32.8249L113.803 113.621Z" fill="url(#paint24_linear_6167_1358)"/>
<path d="M270.674 193.504C266.292 193.504 262.74 197.056 262.74 201.438C262.74 205.82 266.292 209.373 270.674 209.373C275.056 209.373 278.608 205.82 278.608 201.438C278.608 197.056 275.056 193.504 270.674 193.504Z" fill="url(#paint25_linear_6167_1358)"/>
<path d="M198.677 134.344C191.509 134.344 185.697 140.155 185.697 147.324C185.697 154.492 191.509 160.303 198.677 160.303C205.846 160.303 211.657 154.492 211.657 147.324C211.657 140.155 205.846 134.344 198.677 134.344Z" fill="url(#paint26_linear_6167_1358)"/>
<path d="M35.8967 119.055C31.5147 119.055 27.9624 122.607 27.9624 126.989C27.9624 131.371 31.5147 134.923 35.8967 134.923C40.2787 134.923 43.8311 131.371 43.8311 126.989C43.8311 122.607 40.2787 119.055 35.8967 119.055Z" fill="url(#paint27_linear_6167_1358)"/>
<path d="M33.3575 192.523C28.977 192.523 25.4259 196.074 25.4259 200.455C25.4259 204.835 28.977 208.386 33.3575 208.386C37.738 208.386 41.2891 204.835 41.2891 200.455C41.2891 196.074 37.738 192.523 33.3575 192.523Z" fill="url(#paint28_linear_6167_1358)"/>
<path d="M149.115 25.4256C144.733 25.4256 141.181 28.9779 141.181 33.3599C141.181 37.7419 144.733 41.2942 149.115 41.2942C153.497 41.2942 157.049 37.7419 157.049 33.3599C157.049 28.9779 153.497 25.4256 149.115 25.4256Z" fill="url(#paint29_linear_6167_1358)"/>
<path d="M271.747 105.427C267.365 105.427 263.813 108.979 263.813 113.361C263.813 117.743 267.365 121.296 271.747 121.296C276.129 121.296 279.682 117.743 279.682 113.361C279.682 108.979 276.129 105.427 271.747 105.427Z" fill="url(#paint30_linear_6167_1358)"/>
<path d="M151.654 146.958C143.406 146.958 136.72 153.644 136.72 161.891C136.72 170.139 143.406 176.825 151.654 176.825C159.902 176.825 166.588 170.139 166.588 161.891C166.588 153.644 159.902 146.958 151.654 146.958Z" fill="url(#paint31_linear_6167_1358)"/>
<path d="M180.151 188.588C172.984 188.588 167.173 194.399 167.173 201.566C167.173 208.733 172.984 214.543 180.151 214.543C187.318 214.543 193.128 208.733 193.128 201.566C193.128 194.399 187.318 188.588 180.151 188.588Z" fill="url(#paint32_linear_6167_1358)"/>
<path d="M123.006 186.304C115.837 186.304 110.026 192.115 110.026 199.284C110.026 206.453 115.837 212.264 123.006 212.264C130.175 212.264 135.986 206.453 135.986 199.284C135.986 192.115 130.175 186.304 123.006 186.304Z" fill="url(#paint33_linear_6167_1358)"/>
<path d="M77.6304 55.1386C73.2499 55.1386 69.6988 58.6897 69.6988 63.0702C69.6988 67.4507 73.2499 71.0018 77.6304 71.0018C82.0109 71.0018 85.562 67.4507 85.562 63.0702C85.562 58.6897 82.0109 55.1386 77.6304 55.1386Z" fill="url(#paint34_linear_6167_1358)"/>
<path d="M150.833 101.303C143.664 101.303 137.853 107.114 137.853 114.283C137.853 121.451 143.664 127.263 150.833 127.263C158.002 127.263 163.813 121.451 163.813 114.283C163.813 107.114 158.002 101.303 150.833 101.303Z" fill="url(#paint35_linear_6167_1358)"/>
<path d="M107.205 133.094C100.036 133.094 94.2251 138.906 94.2251 146.074C94.2251 153.243 100.036 159.054 107.205 159.054C114.374 159.054 120.185 153.243 120.185 146.074C120.185 138.906 114.374 133.094 107.205 133.094Z" fill="url(#paint36_linear_6167_1358)"/>
<path d="M211.495 174.722C208.46 174.722 205.999 177.183 205.999 180.218C205.999 183.253 208.46 185.713 211.495 185.713C214.53 185.713 216.99 183.253 216.99 180.218C216.99 177.183 214.53 174.722 211.495 174.722Z" fill="url(#paint37_linear_6167_1358)"/>
<path d="M150.839 220.03C147.952 220.03 145.611 222.371 145.611 225.258C145.611 228.144 147.952 230.485 150.839 230.485C153.726 230.485 156.066 228.144 156.066 225.258C156.066 222.371 153.726 220.03 150.839 220.03Z" fill="url(#paint38_linear_6167_1358)"/>
<path d="M190.814 107.915C187.629 107.915 185.047 110.497 185.047 113.681C185.047 116.866 187.629 119.448 190.814 119.448C193.998 119.448 196.58 116.866 196.58 113.681C196.58 110.497 193.998 107.915 190.814 107.915Z" fill="url(#paint39_linear_6167_1358)"/>
<path d="M115.069 108.595C111.997 108.595 109.506 111.086 109.506 114.158C109.506 117.231 111.997 119.721 115.069 119.721C118.142 119.721 120.632 117.231 120.632 114.158C120.632 111.086 118.142 108.595 115.069 108.595Z" fill="url(#paint40_linear_6167_1358)"/>
<path d="M152.47 280.543C148.088 280.543 144.536 284.095 144.536 288.477C144.536 292.859 148.088 296.412 152.47 296.412C156.852 296.412 160.404 292.859 160.404 288.477C160.404 284.095 156.852 280.543 152.47 280.543Z" fill="url(#paint41_linear_6167_1358)"/>
<path d="M91.2688 255.06C86.8868 255.06 83.3345 258.612 83.3345 262.994C83.3345 267.376 86.8868 270.929 91.2688 270.929C95.6508 270.929 99.2031 267.376 99.2031 262.994C99.2031 258.612 95.6508 255.06 91.2688 255.06Z" fill="url(#paint42_linear_6167_1358)"/>
<path d="M89.998 174.188C86.6681 174.188 83.9687 176.888 83.9687 180.218C83.9687 183.548 86.6681 186.247 89.998 186.247C93.3279 186.247 96.0273 183.548 96.0273 180.218C96.0273 176.888 93.3279 174.188 89.998 174.188Z" fill="url(#paint43_linear_6167_1358)"/>
<path d="M224.822 55.1359C220.44 55.1359 216.887 58.6882 216.887 63.0702C216.887 67.4522 220.44 71.0045 224.822 71.0045C229.204 71.0045 232.756 67.4522 232.756 63.0702C232.756 58.6882 229.204 55.1359 224.822 55.1359Z" fill="url(#paint44_linear_6167_1358)"/>
<path d="M228.347 254.209C223.965 254.209 220.413 257.761 220.413 262.143C220.413 266.525 223.965 270.078 228.347 270.078C232.729 270.078 236.281 266.525 236.281 262.143C236.281 257.761 232.729 254.209 228.347 254.209Z" fill="url(#paint45_linear_6167_1358)"/>
<path d="M347.482 237.4C353.007 237.4 358.155 236.772 362.927 235.517L361.42 229.867C357.151 230.997 352.505 231.562 347.483 231.562H336.371V95.3935H347.483C355.644 95.3935 363.146 96.9944 369.989 100.196C376.833 103.398 382.733 107.824 387.693 113.474C392.653 119.124 396.545 125.935 399.37 133.909C402.195 141.882 403.608 150.64 403.608 160.182V164.137C403.608 171.168 402.666 178.074 400.783 184.854C398.899 191.634 396.325 197.88 393.061 203.594C389.796 209.307 385.967 214.298 381.572 218.566C377.178 222.835 372.532 225.912 367.635 227.795L369.895 233.257C375.42 230.997 380.567 227.575 385.339 222.992C390.111 218.41 394.285 213.042 397.863 206.889C401.442 200.737 404.267 193.988 406.339 186.643C408.41 179.298 409.446 171.796 409.446 164.137V160.182C409.446 149.886 407.877 140.438 404.738 131.837C401.599 123.236 397.267 115.797 391.742 109.519C386.218 103.241 379.689 98.3439 372.155 94.8285C364.622 91.3132 356.398 89.5551 347.483 89.5551H330.533V237.4L347.482 237.4ZM475.364 192.387C483.399 187.867 489.552 181.495 493.821 173.271C498.089 165.047 500.224 155.725 500.224 145.303V142.666C500.224 127.222 495.61 114.415 486.381 104.245C477.153 94.075 464.001 88.9899 446.925 88.9899H433.929V148.693C436.064 148.819 438.198 148.881 440.333 148.881V95.0167H446.548C461.991 95.0167 473.668 99.5053 481.578 108.483C489.489 117.46 493.444 128.98 493.444 143.043V145.115C493.444 159.052 489.489 170.478 481.578 179.392C473.668 188.306 461.991 192.764 446.548 192.764H440.333H433.929V198.791C437.696 198.916 440.207 198.979 441.463 198.979H446.924C455.588 198.979 463.184 197.661 469.713 195.024L493.067 237.4H500.601L475.364 192.387ZM591.003 237.4C611.846 237.4 629.612 230.055 644.303 215.365C651.585 208.208 657.078 200.486 660.782 192.199C664.486 183.912 666.338 174.495 666.338 163.948C666.338 142.981 658.993 125.277 644.303 110.837C629.612 96.5234 611.47 89.3044 589.873 89.1782C576.564 89.3038 564.071 92.6312 552.394 99.1601C540.968 105.815 531.865 115.044 525.085 126.846L530.547 129.859C536.699 118.936 545.049 110.46 555.595 104.434C566.017 98.4068 577.443 95.3306 589.873 95.205C609.963 95.3306 626.661 102.048 639.971 115.357C653.28 128.416 659.997 144.612 660.123 163.948C660.123 173.617 658.428 182.248 655.038 189.845C651.648 197.441 646.688 204.566 640.159 211.221C626.724 224.656 610.34 231.373 591.003 231.373C578.949 231.373 568.026 228.799 558.232 223.651L555.407 229.113C566.079 234.638 577.945 237.4 591.003 237.4ZM756.74 237.4C777.583 237.4 795.349 230.055 810.04 215.365C817.322 208.208 822.816 200.486 826.519 192.199C830.223 183.912 832.075 174.495 832.075 163.948C832.075 142.981 824.73 125.277 810.04 110.837C795.349 96.5234 777.207 89.3044 755.61 89.1782C742.301 89.3038 729.808 92.6312 718.131 99.1601C706.705 105.815 697.602 115.044 690.822 126.846L696.284 129.859C702.436 118.936 710.786 110.46 721.333 104.434C731.754 98.4068 743.18 95.3306 755.61 95.205C775.7 95.3306 792.398 102.048 805.708 115.357C819.017 128.416 825.734 144.612 825.86 163.948C825.86 173.617 824.165 182.248 820.775 189.845C817.385 197.441 812.425 204.566 805.896 211.221C792.461 224.656 776.077 231.373 756.74 231.373C744.687 231.373 733.763 228.799 723.969 223.651L721.144 229.113C731.816 234.638 743.683 237.4 756.74 237.4ZM873.886 230.432L865.976 230.431L936.791 89.9312V88.9895H920.971C920.971 90.2451 920.939 91.595 920.877 93.039C920.814 94.4829 920.782 95.4561 920.782 95.9584H927.374L856.559 236.27V237.4H873.886V230.432ZM886.882 88.9899H876.711V95.9584H886.882V92.8508V88.9899ZM913.814 230.431V237.4H923.419V230.431H913.814ZM961.275 88.9899V237.4H966.172V88.9899H961.275Z" fill="#668DB7"/>
<defs>
<linearGradient id="paint0_linear_6167_1358" x1="152.694" y1="162.744" x2="150.591" y2="161.035" gradientUnits="userSpaceOnUse">
<stop stop-color="#B98947"/>
<stop offset="1" stop-color="#FAF0A1"/>
</linearGradient>
<linearGradient id="paint1_linear_6167_1358" x1="150.581" y1="162.706" x2="113.991" y2="114.971" gradientUnits="userSpaceOnUse">
<stop stop-color="#B98947"/>
<stop offset="1" stop-color="#FAF0A1"/>
</linearGradient>
<linearGradient id="paint2_linear_6167_1358" x1="90.3833" y1="181.525" x2="89.611" y2="178.928" gradientUnits="userSpaceOnUse">
<stop stop-color="#B98947"/>
<stop offset="1" stop-color="#FAF0A1"/>
</linearGradient>
<linearGradient id="paint3_linear_6167_1358" x1="149.391" y1="225.706" x2="148.919" y2="161.901" gradientUnits="userSpaceOnUse">
<stop stop-color="#B98947"/>
<stop offset="1" stop-color="#FAF0A1"/>
</linearGradient>
<linearGradient id="paint4_linear_6167_1358" x1="211.089" y1="181.509" x2="151.25" y2="163.186" gradientUnits="userSpaceOnUse">
<stop stop-color="#B98947"/>
<stop offset="1" stop-color="#FAF0A1"/>
</linearGradient>
<linearGradient id="paint5_linear_6167_1358" x1="181.703" y1="201.332" x2="179.14" y2="200.451" gradientUnits="userSpaceOnUse">
<stop stop-color="#B98947"/>
<stop offset="1" stop-color="#FAF0A1"/>
</linearGradient>
<linearGradient id="paint6_linear_6167_1358" x1="197.985" y1="148.674" x2="150.889" y2="116.054" gradientUnits="userSpaceOnUse">
<stop stop-color="#B98947"/>
<stop offset="1" stop-color="#FAF0A1"/>
</linearGradient>
<linearGradient id="paint7_linear_6167_1358" x1="107.89" y1="147.131" x2="106.34" y2="144.908" gradientUnits="userSpaceOnUse">
<stop stop-color="#B98947"/>
<stop offset="1" stop-color="#FAF0A1"/>
</linearGradient>
<linearGradient id="paint8_linear_6167_1358" x1="121.706" y1="199.882" x2="105.837" y2="146.407" gradientUnits="userSpaceOnUse">
<stop stop-color="#B98947"/>
<stop offset="1" stop-color="#FAF0A1"/>
</linearGradient>
<linearGradient id="paint9_linear_6167_1358" x1="180.402" y1="202.253" x2="122.969" y2="200.857" gradientUnits="userSpaceOnUse">
<stop stop-color="#B98947"/>
<stop offset="1" stop-color="#FAF0A1"/>
</linearGradient>
<linearGradient id="paint10_linear_6167_1358" x1="152.439" y1="116.045" x2="150.872" y2="113.834" gradientUnits="userSpaceOnUse">
<stop stop-color="#B98947"/>
<stop offset="1" stop-color="#FAF0A1"/>
</linearGradient>
<linearGradient id="paint11_linear_6167_1358" x1="105.856" y1="146.477" x2="76.3519" y2="63.5187" gradientUnits="userSpaceOnUse">
<stop stop-color="#B98947"/>
<stop offset="1" stop-color="#FAF0A1"/>
</linearGradient>
<linearGradient id="paint12_linear_6167_1358" x1="33.3789" y1="201.825" x2="33.3499" y2="199.116" gradientUnits="userSpaceOnUse">
<stop stop-color="#B98947"/>
<stop offset="1" stop-color="#FAF0A1"/>
</linearGradient>
<linearGradient id="paint13_linear_6167_1358" x1="153.774" y1="288.892" x2="151.195" y2="288.069" gradientUnits="userSpaceOnUse">
<stop stop-color="#B98947"/>
<stop offset="1" stop-color="#FAF0A1"/>
</linearGradient>
<linearGradient id="paint14_linear_6167_1358" x1="269.855" y1="202.519" x2="197.932" y2="148.648" gradientUnits="userSpaceOnUse">
<stop stop-color="#B98947"/>
<stop offset="1" stop-color="#FAF0A1"/>
</linearGradient>
<linearGradient id="paint15_linear_6167_1358" x1="230.04" y1="262.314" x2="227.437" y2="261.56" gradientUnits="userSpaceOnUse">
<stop stop-color="#B98947"/>
<stop offset="1" stop-color="#FAF0A1"/>
</linearGradient>
<linearGradient id="paint16_linear_6167_1358" x1="271.007" y1="114.503" x2="148.381" y2="34.4999" gradientUnits="userSpaceOnUse">
<stop stop-color="#B98947"/>
<stop offset="1" stop-color="#FAF0A1"/>
</linearGradient>
<linearGradient id="paint17_linear_6167_1358" x1="36.7832" y1="128.047" x2="35.0554" y2="125.959" gradientUnits="userSpaceOnUse">
<stop stop-color="#B98947"/>
<stop offset="1" stop-color="#FAF0A1"/>
</linearGradient>
<linearGradient id="paint18_linear_6167_1358" x1="90.0161" y1="263.509" x2="34.6558" y2="127.502" gradientUnits="userSpaceOnUse">
<stop stop-color="#B98947"/>
<stop offset="1" stop-color="#FAF0A1"/>
</linearGradient>
<linearGradient id="paint19_linear_6167_1358" x1="91.29" y1="265.321" x2="91.2505" y2="262.612" gradientUnits="userSpaceOnUse">
<stop stop-color="#B98947"/>
<stop offset="1" stop-color="#FAF0A1"/>
</linearGradient>
<linearGradient id="paint20_linear_6167_1358" x1="271.742" y1="114.876" x2="190.811" y2="114.876" gradientUnits="userSpaceOnUse">
<stop stop-color="#B98947"/>
<stop offset="1" stop-color="#FAF0A1"/>
</linearGradient>
<linearGradient id="paint21_linear_6167_1358" x1="227.015" y1="262.416" x2="209.742" y2="178.843" gradientUnits="userSpaceOnUse">
<stop stop-color="#B98947"/>
<stop offset="1" stop-color="#FAF0A1"/>
</linearGradient>
<linearGradient id="paint22_linear_6167_1358" x1="92.0024" y1="264.914" x2="90.5313" y2="262.638" gradientUnits="userSpaceOnUse">
<stop stop-color="#B98947"/>
<stop offset="1" stop-color="#FAF0A1"/>
</linearGradient>
<linearGradient id="paint23_linear_6167_1358" x1="89.0435" y1="181.176" x2="34.9485" y2="127.946" gradientUnits="userSpaceOnUse">
<stop stop-color="#B98947"/>
<stop offset="1" stop-color="#FAF0A1"/>
</linearGradient>
<linearGradient id="paint24_linear_6167_1358" x1="116.3" y1="114.673" x2="113.803" y2="113.621" gradientUnits="userSpaceOnUse">
<stop stop-color="#B98947"/>
<stop offset="1" stop-color="#FAF0A1"/>
</linearGradient>
<linearGradient id="paint25_linear_6167_1358" x1="278.608" y1="209.373" x2="262.74" y2="209.373" gradientUnits="userSpaceOnUse">
<stop stop-color="#B98947"/>
<stop offset="1" stop-color="#FAF0A1"/>
</linearGradient>
<linearGradient id="paint26_linear_6167_1358" x1="211.657" y1="160.303" x2="185.697" y2="160.303" gradientUnits="userSpaceOnUse">
<stop stop-color="#B98947"/>
<stop offset="1" stop-color="#FAF0A1"/>
</linearGradient>
<linearGradient id="paint27_linear_6167_1358" x1="43.8311" y1="134.923" x2="27.9624" y2="134.923" gradientUnits="userSpaceOnUse">
<stop stop-color="#B98947"/>
<stop offset="1" stop-color="#FAF0A1"/>
</linearGradient>
<linearGradient id="paint28_linear_6167_1358" x1="41.2891" y1="208.386" x2="25.4258" y2="208.386" gradientUnits="userSpaceOnUse">
<stop stop-color="#B98947"/>
<stop offset="1" stop-color="#FAF0A1"/>
</linearGradient>
<linearGradient id="paint29_linear_6167_1358" x1="157.049" y1="41.2942" x2="141.181" y2="41.2942" gradientUnits="userSpaceOnUse">
<stop stop-color="#B98947"/>
<stop offset="1" stop-color="#FAF0A1"/>
</linearGradient>
<linearGradient id="paint30_linear_6167_1358" x1="279.682" y1="121.296" x2="263.813" y2="121.296" gradientUnits="userSpaceOnUse">
<stop stop-color="#B98947"/>
<stop offset="1" stop-color="#FAF0A1"/>
</linearGradient>
<linearGradient id="paint31_linear_6167_1358" x1="166.588" y1="176.825" x2="136.72" y2="176.825" gradientUnits="userSpaceOnUse">
<stop stop-color="#B98947"/>
<stop offset="1" stop-color="#FAF0A1"/>
</linearGradient>
<linearGradient id="paint32_linear_6167_1358" x1="193.128" y1="214.543" x2="167.173" y2="214.543" gradientUnits="userSpaceOnUse">
<stop stop-color="#B98947"/>
<stop offset="1" stop-color="#FAF0A1"/>
</linearGradient>
<linearGradient id="paint33_linear_6167_1358" x1="135.986" y1="212.264" x2="110.026" y2="212.264" gradientUnits="userSpaceOnUse">
<stop stop-color="#B98947"/>
<stop offset="1" stop-color="#FAF0A1"/>
</linearGradient>
<linearGradient id="paint34_linear_6167_1358" x1="85.562" y1="71.0018" x2="69.6988" y2="71.0018" gradientUnits="userSpaceOnUse">
<stop stop-color="#B98947"/>
<stop offset="1" stop-color="#FAF0A1"/>
</linearGradient>
<linearGradient id="paint35_linear_6167_1358" x1="163.813" y1="127.263" x2="137.853" y2="127.263" gradientUnits="userSpaceOnUse">
<stop stop-color="#B98947"/>
<stop offset="1" stop-color="#FAF0A1"/>
</linearGradient>
<linearGradient id="paint36_linear_6167_1358" x1="120.185" y1="159.054" x2="94.2251" y2="159.054" gradientUnits="userSpaceOnUse">
<stop stop-color="#B98947"/>
<stop offset="1" stop-color="#FAF0A1"/>
</linearGradient>
<linearGradient id="paint37_linear_6167_1358" x1="216.99" y1="185.713" x2="205.999" y2="185.713" gradientUnits="userSpaceOnUse">
<stop stop-color="#B98947"/>
<stop offset="1" stop-color="#FAF0A1"/>
</linearGradient>
<linearGradient id="paint38_linear_6167_1358" x1="156.066" y1="230.485" x2="145.611" y2="230.485" gradientUnits="userSpaceOnUse">
<stop stop-color="#B98947"/>
<stop offset="1" stop-color="#FAF0A1"/>
</linearGradient>
<linearGradient id="paint39_linear_6167_1358" x1="196.58" y1="119.448" x2="185.047" y2="119.448" gradientUnits="userSpaceOnUse">
<stop stop-color="#B98947"/>
<stop offset="1" stop-color="#FAF0A1"/>
</linearGradient>
<linearGradient id="paint40_linear_6167_1358" x1="120.632" y1="119.721" x2="109.506" y2="119.721" gradientUnits="userSpaceOnUse">
<stop stop-color="#B98947"/>
<stop offset="1" stop-color="#FAF0A1"/>
</linearGradient>
<linearGradient id="paint41_linear_6167_1358" x1="160.404" y1="296.412" x2="144.536" y2="296.412" gradientUnits="userSpaceOnUse">
<stop stop-color="#B98947"/>
<stop offset="1" stop-color="#FAF0A1"/>
</linearGradient>
<linearGradient id="paint42_linear_6167_1358" x1="99.2031" y1="270.929" x2="83.3345" y2="270.929" gradientUnits="userSpaceOnUse">
<stop stop-color="#B98947"/>
<stop offset="1" stop-color="#FAF0A1"/>
</linearGradient>
<linearGradient id="paint43_linear_6167_1358" x1="96.0273" y1="186.247" x2="83.9687" y2="186.247" gradientUnits="userSpaceOnUse">
<stop stop-color="#B98947"/>
<stop offset="1" stop-color="#FAF0A1"/>
</linearGradient>
<linearGradient id="paint44_linear_6167_1358" x1="232.756" y1="71.0045" x2="216.887" y2="71.0045" gradientUnits="userSpaceOnUse">
<stop stop-color="#B98947"/>
<stop offset="1" stop-color="#FAF0A1"/>
</linearGradient>
<linearGradient id="paint45_linear_6167_1358" x1="236.281" y1="270.078" x2="220.413" y2="270.078" gradientUnits="userSpaceOnUse">
<stop stop-color="#B98947"/>
<stop offset="1" stop-color="#FAF0A1"/>
</linearGradient>
</defs>
</svg>
